# xmcd
#
# Track frame offsets:
#	150
#	45082
#	78137
#	96861
#	116007
#	137644
#	164641
#	183052
#	206056
#	226675
#	245686
#
# Disc length: 3558 seconds
# Revision: 0
# Processed by: cddbd v1.5.2PL0 Copyright (c) Steve Scherf et al.
# Submitted via: dBpowerAMP V12.0
#
DISCID=840de40b
DTITLE=Rick James - The Music Of Rick James [CDOne:1982-1984
DYEAR=1900
DGENRE=Funk
TTITLE0=Standing On Top feat.The Temptations
TTITLE1=Dance Wit Me
TTITLE2=Hard To Get
TTITLE3=She Blew My Mind(69 Times)
TTITLE4=Money Talks
TTITLE5=Cold Blooded
TTITLE6=U Bring The Freak Out
TTITLE7=Ebony Eyes feat.Smokey Robinson
TTITLE8=P.I.M.P. The S.I.M.P. feat.Grandmaster Flash
TTITLE9=17
TTITLE10=You Turn Me On
EXTD=
EXTT0=
EXTT1=
EXTT2=
EXTT3=
EXTT4=
EXTT5=
EXTT6=
EXTT7=
EXTT8=
EXTT9=
EXTT10=
PLAYORDER=
